Coordinates
version=1
nRows=13
nColumns=40
inDegrees=yes

Units are S.I. units (second, meters, Newtons, ...)
If the header above contains a line with 'inDegrees', this indicates whether rotational values are in degrees (yes) or radians (no).

endheader
time	pelvis_tilt	pelvis_list	pelvis_rotation	pelvis_tx	pelvis_ty	pelvis_tz	hip_flexion_r	hip_adduction_r	hip_rotation_r	knee_angle_r	knee_angle_r_beta	ankle_angle_r	subtalar_angle_r	mtp_angle_r	hip_flexion_l	hip_adduction_l	hip_rotation_l	knee_angle_l	knee_angle_l_beta	ankle_angle_l	subtalar_angle_l	mtp_angle_l	lumbar_extension	lumbar_bending	lumbar_rotation	arm_flex_r	arm_add_r	arm_rot_r	elbow_flex_r	pro_sup_r	wrist_flex_r	wrist_dev_r	arm_flex_l	arm_add_l	arm_rot_l	elbow_flex_l	pro_sup_l	wrist_flex_l	wrist_dev_l
      1.99000001	     12.66702697	     11.19886624	   -130.99553625	     -0.13691695	      0.98181752	      0.49630399	     24.90292144	     13.58517091	     29.59074015	     12.74225535	      0.22239431	    -15.68550936	      0.00000000	      0.00000000	     67.53853160	     -0.55514431	     12.09637050	    101.32226477	      1.76840713	      8.62301517	      0.00000000	      0.00000000	      0.47479739	     -0.32495504	      0.34961248	     29.27370061	     19.25309860	     70.91830884	     99.34942131	     44.36919804	      0.00000000	      0.00000000	     35.14781374	     13.09461519	     68.31663569	    104.86939752	     42.24986654	      0.00000000	      0.00000000
      2.00000000	     12.95259566	     11.12129187	   -132.45149471	     -0.14137639	      0.98187334	      0.49813852	     24.33399963	     13.76981061	     30.71891372	     12.20824347	      0.21307404	    -15.87209660	      0.00000000	      0.00000000	     67.70464684	      0.00024598	     12.69238373	     99.43858643	      1.73553074	      8.52259985	      0.00000000	      0.00000000	      0.55261822	     -0.30692091	      0.45392902	     29.25750470	     19.21092730	     70.87922021	     99.34693984	     44.37579359	      0.00000000	      0.00000000	     35.20272758	     13.08409992	     68.39252048	    104.80013991	     42.23170908	      0.00000000	      0.00000000
      2.00999999	     13.21726160	     11.02036233	   -133.89165263	     -0.14586521	      0.98185225	      0.50000199	     23.73456349	     13.92462866	     31.85048049	     11.70026482	      0.20420814	    -15.97442900	      0.00000000	      0.00000000	     67.76290484	      0.53580089	     13.23060086	     97.45951325	      1.70098939	      8.43012043	      0.00000000	      0.00000000	      0.60067452	     -0.27508792	      0.54731690	     29.21461542	     19.18899522	     70.85463726	     99.34084758	     44.38241973	      0.00000000	      0.00000000	     35.23363238	     13.09088088	     68.48623623	    104.68015348	     42.20428210	      0.00000000	      0.00000000
      2.01999998	     13.48766392	     10.89291297	   -135.29862501	     -0.15038150	      0.98178733	      0.50187342	     23.19936526	     14.06155257	     32.87205703	     11.33753481	      0.19787731	    -16.02001416	      0.00000000	      0.00000000	     67.75672365	      1.07865996	     13.70649534	     95.37840098	      1.66466713	      8.22428794	      0.00000000	      0.00000000	      0.63383575	     -0.25446596	      0.59213752	     29.15671062	     19.13930424	     70.84663683	     99.33343542	     44.38733500	      0.00000000	      0.00000000	     35.21395127	     13.09219827	     68.55714747	    104.56838958	     42.18013477	      0.00000000	      0.00000000
      2.02999997	     13.76892426	     10.75900115	   -136.68911016	     -0.15494334	      0.98169657	      0.50381369	     22.69405717	     14.18457786	     33.94019706	     11.03201413	      0.19254497	    -16.02605201	      0.00000000	      0.00000000	     67.69784084	      1.60553307	     14.09335739	     93.20407003	      1.62671790	      7.95978887	      0.00000000	      0.00000000	      0.69391287	     -0.24009552	      0.62494063	     29.06499613	     19.10220363	     70.86361903	     99.32013137	     44.39143277	      0.00000000	      0.00000000	     35.14120773	     13.12464962	     68.62713961	    104.42320609	     42.15069179	      0.00000000	      0.00000000
      2.03999996	     14.02829096	     10.59110705	   -138.03823869	     -0.15961107	      0.98159271	      0.50582948	     22.17843770	     14.28617988	     34.93188425	     10.79960117	      0.18848860	    -15.95270709	      0.00000000	      0.00000000	     67.49731381	      2.18116848	     14.46064254	     90.88972901	      1.58632503	      7.55726152	      0.00000000	      0.00000000	      0.70475337	     -0.22399024	      0.62635269	     28.94742149	     19.04499439	     70.89108032	     99.31170607	     44.39697974	      0.00000000	      0.00000000	     35.01480923	     13.17706372	     68.67663032	    104.26368847	     42.11985243	      0.00000000	      0.00000000
      2.04999995	     14.29885475	     10.39532213	   -139.33353939	     -0.16429511	      0.98152383	      0.50793189	     21.74260713	     14.37054128	     35.71077340	     10.75853070	      0.18777178	    -15.78400706	      0.00000000	      0.00000000	     67.23659900	      2.77091444	     14.74298605	     88.45594950	      1.54384756	      7.13086141	      0.00000000	      0.00000000	      0.70210488	     -0.22968863	      0.59516321	     28.81117650	     18.97320596	     70.94829557	     99.31810449	     44.39982408	      0.00000000	      0.00000000	     34.83786427	     13.22183515	     68.74008919	    104.15285468	     42.09700475	      0.00000000	      0.00000000
      2.05999994	     14.58259477	     10.18260262	   -140.56306512	     -0.16910393	      0.98144966	      0.51011683	     21.33514166	     14.39580994	     36.54895486	     10.73358526	      0.18733640	    -15.57859561	      0.00000000	      0.00000000	     66.90549781	      3.41740441	     15.01853359	     85.89777288	      1.49919896	      6.52083873	      0.00000000	      0.00000000	      0.75979297	     -0.27394256	      0.47593500	     28.69537243	     18.89247896	     71.03008943	     99.32608888	     44.40228529	      0.00000000	      0.00000000	     34.60715807	     13.27069651	     68.74304419	    104.00636688	     42.07236072	      0.00000000	      0.00000000
      2.06999993	     14.85763122	      9.94449426	   -141.70284397	     -0.17398023	      0.98140523	      0.51246127	     20.94152129	     14.40006747	     37.16504973	     10.84439728	      0.18927044	    -15.26419272	      0.00000000	      0.00000000	     66.45370582	      4.15481596	     15.31791210	     83.19812711	      1.45208125	      5.87249286	      0.00000000	      0.00000000	      0.77719232	     -0.32707204	      0.30745122	     28.54037741	     18.81408202	     71.11949610	     99.30980535	     44.40136730	      0.00000000	      0.00000000	     34.36666656	     13.32603954	     68.78222608	    103.88093498	     42.04908380	      0.00000000	      0.00000000
      2.07999992	     15.09822717	      9.69339788	   -142.76336094	     -0.17898026	      0.98136663	      0.51490025	     20.56027196	     14.40456755	     37.72847592	     11.01171797	      0.19219073	    -14.93852341	      0.00000000	      0.00000000	     65.91126856	      4.92391848	     15.61658879	     80.40153063	      1.40327143	      5.10206427	      0.00000000	      0.00000000	      0.77422518	     -0.37010987	      0.08182528	     28.29327339	     18.73400572	     71.16291006	     99.30819242	     44.40300923	      0.00000000	      0.00000000	     34.11993031	     13.37623583	     68.79751584	    103.76631226	     42.02934983	      0.00000000	      0.00000000
      2.08999991	     15.37027890	      9.42724991	   -143.82020229	     -0.18399659	      0.98136597	      0.51732278	     20.20586636	     14.39933342	     38.28238271	     11.21095238	      0.19566803	    -14.51344868	      0.00000000	      0.00000000	     65.33830621	      5.65433637	     15.81305807	     77.47670062	      1.35222352	      4.15976560	      0.00000000	      0.00000000	      0.79576175	     -0.43419487	     -0.10921325	     28.07402006	     18.71276028	     71.16928302	     99.31607181	     44.40879980	      0.00000000	      0.00000000	     33.92767543	     13.41077596	     68.80266761	    103.64116281	     42.00733296	      0.00000000	      0.00000000
      2.09999990	     15.56453846	      9.14058475	   -144.75330842	     -0.18911730	      0.98130365	      0.51985210	     19.82595188	     14.28519574	     38.70605993	     11.41818531	      0.19928493	    -14.11438292	      0.00000000	      0.00000000	     64.64186220	      6.40063166	     16.03715049	     74.49543584	      1.30019063	      3.31587874	      0.00000000	      0.00000000	      0.75106694	     -0.47396107	     -0.38406844	     27.88646501	     18.61403894	     71.16750284	     99.33895759	     44.41508733	      0.00000000	      0.00000000	     33.68944564	     13.47431739	     68.80705245	    103.52929215	     41.98827956	      0.00000000	      0.00000000
      2.10999990	     15.79293292	      8.91126341	   -145.63819275	     -0.19443578	      0.98108188	      0.52236701	     19.50320132	     14.23744658	     39.00909656	     11.64639263	      0.20326790	    -13.64428874	      0.00000000	      0.00000000	     63.97380192	      7.07673258	     16.19875971	     71.42738261	      1.24664300	      2.30188665	      0.00000000	      0.00000000	      0.80688518	     -0.49663002	     -0.66857943	     27.68801668	     18.60559284	     71.13989963	     99.38328320	     44.42636587	      0.00000000	      0.00000000	     33.45706007	     13.53680926	     68.75675211	    103.40577069	     41.96999977	      0.00000000	      0.00000000
